# xmcd CD database file
#
# Track frame offsets:
#	180
#	20997
#	42752
#	61649
#	76641
#	92922
#	96104
#	112994
#	132470
#	151418
#	161158
#	183320
#	197205
#
# Disc length: 2940 seconds
#
# Revision: 0
# Processed by: cddbd v1.5PL3 Copyright (c) Steve Scherf et al.
# Submitted via: CDex 1.51
#
DISCID=a40b7a0d
DTITLE=Johnson, Vail - Terminator
DYEAR=1994
DGENRE=Jazz
TTITLE0=Terminator
TTITLE1=431
TTITLE2=Anthem
TTITLE3=X-Factor
TTITLE4=Jazz Martyrs
TTITLE5=Organ Jam
TTITLE6=Brasil
TTITLE7=Be The One
TTITLE8=Kick Off
TTITLE9=Bass Solo
TTITLE10=Always
TTITLE11=Stickman
TTITLE12=Time Alone
EXTD=YEAR: 1994
EXTT0=
EXTT1=
EXTT2=
EXTT3=
EXTT4=
EXTT5=
EXTT6=
EXTT7=
EXTT8=
EXTT9=
EXTT10=
EXTT11=
EXTT12=
PLAYORDER=
